<?xml version="1.0" encoding="UTF-8"?>
<svg version="1.1" xmlns="http://www.w3.org/2000/svg" width="1873" height="850">
<path d="M0 0 C1.7015625 0.47808105 1.7015625 0.47808105 3.4375 0.96582031 C46.96927411 13.40522085 95.90430664 33.40522238 128.5 65.9375 C129.08007812 66.50597656 129.66015625 67.07445313 130.2578125 67.66015625 C140.55419527 78.60329673 141.80967823 92.87573341 141.74050903 107.17459106 C141.74221788 108.47762141 141.74392673 109.78065176 141.74568737 111.12316787 C141.75013203 114.71491856 141.74219721 118.30654862 141.73213124 121.89828396 C141.7234572 125.78089818 141.72641969 129.66350613 141.72793579 133.54612732 C141.72898215 140.26473718 141.72273165 146.98330806 141.71146011 153.70190811 C141.69517423 163.41575182 141.68999395 173.12957677 141.68748413 182.84343265 C141.68311187 198.60526786 141.6698155 214.36708231 141.65087891 230.12890625 C141.63250796 245.43587134 141.6183574 260.74283079 141.60986328 276.04980469 C141.60933783 276.99405505 141.60881239 277.93830541 141.60827102 278.91116942 C141.60566086 283.64841363 141.60313346 288.38565788 141.60064721 293.12290215 C141.57992932 332.3944493 141.54471657 371.66597328 141.5 410.9375 C142.07177916 410.85044642 142.64355831 410.76339285 143.23266411 410.67370129 C145.85266825 410.27555639 148.47296081 409.87934121 151.09326172 409.4831543 C151.99263962 409.34618889 152.89201752 409.20922348 153.81864929 409.0681076 C160.40706002 408.07392702 166.97912437 407.25287783 173.625 406.75 C174.64996582 406.67177002 175.67493164 406.59354004 176.73095703 406.51293945 C184.60896914 405.9655734 192.47884621 405.69929939 200.375 405.625 C201.42574707 405.60735596 202.47649414 405.58971191 203.55908203 405.5715332 C213.74267964 405.58047617 222.6705086 408.12369177 231.8125 412.5 C232.89253296 413.01445679 232.89253296 413.01445679 233.99438477 413.53930664 C248.45588192 420.67368771 269.12122836 434.11758342 274.5 449.9375 C277.21833089 464.6109392 266.15650283 480.07601432 258.31347656 491.6953125 C252.4924731 500.13071206 247.7561976 505.49479653 237.5 507.9375 C234.76968071 508.13125571 232.14536344 508.24121087 229.41796875 508.23828125 C228.27313019 508.2466803 228.27313019 508.2466803 227.10516357 508.25524902 C224.6324073 508.26713758 222.16025558 508.26088794 219.6875 508.25 C218.84019318 508.24817719 217.99288635 508.24635437 217.11990356 508.24447632 C155.58424447 508.02174447 155.58424447 508.02174447 140.5 492.9375 C140.49413376 494.17665161 140.48826752 495.41580322 140.48222351 496.69250488 C140.42413926 508.57080533 140.35096501 520.44893749 140.26428509 532.32706451 C140.22020996 538.42864072 140.18083103 544.53015963 140.15356445 550.63183594 C140.01742524 580.18866601 139.36561173 609.50846842 136.5 638.9375 C136.39350128 640.04011169 136.28700256 641.14272339 136.17727661 642.27874756 C135.60964469 647.9913349 134.9429552 653.68443202 134.1875 659.375 C134.08295502 660.18227539 133.97841003 660.98955078 133.87069702 661.82128906 C125.93435435 722.86758686 112.75535004 793.02523573 71.5 840.9375 C71.06816406 841.50855469 70.63632813 842.07960938 70.19140625 842.66796875 C66.84347763 846.391366 62.81948802 846.46675196 58.125 846.75 C53.12052773 846.54942975 49.79716282 846.2650213 46.0625 842.8125 C37.15540575 831.91738909 31.27459745 820.14633439 32.5 805.9375 C33.25701421 801.6617716 34.32889774 797.47127843 35.4296875 793.2734375 C37.9993451 783.18679975 39.10366143 773.04606823 39.9375 762.6875 C39.99936493 761.93329773 40.06122986 761.17909546 40.12496948 760.40203857 C42.86951573 726.62360821 44.37024868 692.73695818 45.625 658.875 C45.66352081 657.83990295 45.70204163 656.80480591 45.74172974 655.73834229 C45.97347742 649.42023509 46.18191386 643.10162632 46.3795104 636.78236675 C46.46024053 634.20623917 46.54233901 631.63015412 46.62576532 629.05411243 C47.47055494 602.74037908 47.65636042 576.44477692 47.66004276 550.11886859 C47.66193085 544.28023614 47.66949417 538.44161013 47.67617798 532.60298157 C47.68959512 519.9213501 47.69575557 507.23972186 47.70018864 494.55808449 C47.70297155 486.62892721 47.70721159 478.6997711 47.71169281 470.77061462 C47.72390416 448.76902603 47.73420007 426.76743816 47.7375679 404.76584625 C47.73778952 403.35206663 47.7380113 401.938287 47.73823325 400.52450737 C47.73845388 399.10769977 47.73867436 397.69089217 47.7388947 396.27408457 C47.73933721 393.43256028 47.73978434 390.591036 47.74023438 387.74951172 C47.74034377 387.0450163 47.74045316 386.34052089 47.74056586 385.61467712 C47.74421122 362.67819049 47.76020656 339.74173516 47.78342474 316.80526053 C47.8080056 292.47795322 47.82173928 268.15066385 47.82293582 243.82334375 C47.82378654 230.58862802 47.82960569 217.35395188 47.84775543 204.11924744 C47.86311717 192.88004198 47.868299 181.64089073 47.86001733 170.40167677 C47.85610105 164.66912416 47.85708917 158.9366809 47.87107468 153.20414162 C47.88375001 147.96118113 47.88267262 142.71841294 47.87048396 137.47545296 C47.86851629 135.57608902 47.8716544 133.67671173 47.88032833 131.77736658 C47.89135097 129.20146261 47.8839828 126.62624594 47.8719368 124.05036163 C47.88332959 122.93757586 47.88332959 122.93757586 47.89495254 121.80230957 C47.84745176 117.1164189 46.95408702 113.92645003 44.5 109.9375 C42.59166682 108.18288142 42.59166682 108.18288142 40.35546875 106.91796875 C39.55802246 106.42216309 38.76057617 105.92635742 37.93896484 105.41552734 C37.13410645 104.92777832 36.32924805 104.4400293 35.5 103.9375 C34.05475361 103.00199983 32.61323283 102.06071497 31.17578125 101.11328125 C30.46470215 100.64825195 29.75362305 100.18322266 29.02099609 99.70410156 C6.49034409 84.86963734 -21.60214879 64.89490561 -27.90234375 37.06640625 C-28.09957031 36.03386719 -28.29679688 35.00132813 -28.5 33.9375 C-28.70753906 33.08027344 -28.91507813 32.22304688 -29.12890625 31.33984375 C-31.326398 21.88909253 -33.46336435 10.13816723 -29.5 0.9375 C-23.28807497 -7.55213087 -8.41576844 -2.4333214 0 0 Z " fill="currentColor" transform="translate(1038.5,4.0625)"/>
<path d="M0 0 C8.01741884 4.0137724 15.39807435 8.51584825 22.5 14 C23.02271484 14.4036377 23.54542969 14.80727539 24.08398438 15.22314453 C27.11096247 17.63787277 29.40645539 19.84070517 31.25 23.25 C31.63671875 23.93578125 32.0234375 24.6215625 32.421875 25.328125 C40.46915194 45.27137656 37.81639182 70.33418416 37.76074219 91.4140625 C37.74947421 95.7149095 37.75604001 100.01550537 37.76762772 104.31634331 C37.85752108 143.78492947 36.5840238 182.64058875 26.5 221 C27.04148682 220.98952637 27.58297363 220.97905273 28.14086914 220.96826172 C89.81586202 219.97461954 152.75662439 224.70941335 213.5625 235.0625 C214.2574054 235.18042908 214.95231079 235.29835815 215.66827393 235.41986084 C223.37295738 236.74294336 231.01816812 238.27677934 238.63671875 240.02734375 C239.33789322 240.18574234 240.03906769 240.34414093 240.76148987 240.50733948 C252.67300379 243.32091206 260.46968021 250.14782618 268.95849609 258.48925781 C270.3899463 259.89214249 271.84448909 261.27135789 273.30078125 262.6484375 C282.19099307 271.20138787 293.37561741 283.74248318 294.1875 296.6875 C293.41229287 306.05739493 286.12574291 313.92817771 279.5 320 C265.89088266 329.7207981 241.63059268 332.76856264 225.5 331 C219.21149086 329.82504859 213.07519049 328.00638703 206.93984985 326.21444702 C203.99914213 325.35651578 201.05217789 324.5242803 198.10229492 323.69848633 C194.24372258 322.61699571 190.38725341 321.52865103 186.53320312 320.43115234 C146.20149397 308.95271583 104.3510119 303.83140654 62.80078125 298.80859375 C62.13273972 298.72674332 61.46469818 298.64489288 60.77641296 298.56056213 C46.78296257 296.89684656 32.75395223 295.67447056 18.68359375 294.91015625 C17.52255379 294.84659408 17.52255379 294.84659408 16.33805847 294.78174782 C-3.60737642 293.71929641 -23.55425652 293.64472443 -43.52338409 293.68214417 C-46.55031967 293.68759054 -49.57724741 293.6899538 -52.60418701 293.6920166 C-83.07080179 293.72433579 -113.3924408 294.26012057 -143.7711792 296.77539062 C-146.48766271 296.99898452 -149.20481635 297.21163797 -151.92236328 297.421875 C-183.82962786 299.92158366 -216.018082 303.52769116 -247.4375 309.69140625 C-261.89367112 312.49132464 -274.85245525 311.97345212 -287.5 304 C-288.29438157 290.40724875 -286.97948695 277.68149682 -277.5 267 C-275.31426813 265.14532322 -272.9920703 263.72115433 -270.5 262.3125 C-269.41235352 261.68976196 -269.41235352 261.68976196 -268.30273438 261.05444336 C-201.7835878 224.41334459 -121.83919729 220.20255927 -47.5 221 C-47.69335938 219.89527344 -47.88671875 218.79054688 -48.0859375 217.65234375 C-49.60212734 208.71131176 -50.82923796 199.78511675 -51.625 190.75 C-51.73787354 189.50657837 -51.73787354 189.50657837 -51.85302734 188.23803711 C-53.42218027 169.25481293 -53.66527172 150.22399818 -53.625 131.1875 C-53.62522473 128.98413086 -53.62546903 126.78076172 -53.62573242 124.57739258 C-53.61096932 112.08172983 -53.49425479 99.61189075 -52.59228516 87.14331055 C-52.36644103 83.44668587 -52.2527862 80.69625448 -53.5 77.18359375 C-56.34877887 74.07330588 -59.60064134 72.05722867 -63.1875 69.875 C-64.73032139 68.90548095 -66.27196079 67.93407878 -67.8125 66.9609375 C-68.59496094 66.46948242 -69.37742188 65.97802734 -70.18359375 65.47167969 C-101.4123404 45.63115642 -126.96401941 24.91522089 -136.5 -12.125 C-137.59937563 -17.6942055 -138.53465293 -23.36161612 -137.5 -29 C-117.19347457 -56.44125058 -22.94323842 -11.25103205 0 0 Z " fill="currentColor" transform="translate(287.5,405)"/>
<path d="M0 0 C7.69391262 6.35777729 15.47512818 13.40451561 19 23 C19.54616211 30.51341934 17.97753632 36.37803114 15.5 43.4375 C15.14123779 44.48357422 14.78247559 45.52964844 14.4128418 46.60742188 C5.02304674 73.4482749 -4.74608229 87.73838234 -30.67578125 100.29296875 C-43.11705105 106.14613469 -55.95274105 110.69767169 -69 115 C-61.11507741 115.10466711 -53.30613733 115.00910057 -45.4375 114.5 C-38.43880405 114.07469876 -31.44886086 113.83025798 -24.4375 113.75 C-23.08192993 113.7180957 -23.08192993 113.7180957 -21.69897461 113.68554688 C-14.47779667 113.64815566 -8.04799597 114.69706971 -2.1875 119.125 C5.95210455 129.82276598 8.45840662 145.21466318 10.875 158.1875 C11.00720947 158.86941406 11.13941895 159.55132812 11.27563477 160.25390625 C12.05056632 164.73842793 12.13316771 168.58064594 11 173 C1.50019225 183.74916212 -25.22008278 182.88266394 -38.31689453 183.734375 C-77.39272572 186.06248261 -116.67061176 185.17616468 -155.6953125 182.40234375 C-160.48171846 182.06950488 -165.20356161 181.91029105 -170 182 C-169.4225 182.969375 -168.845 183.93875 -168.25 184.9375 C-162.22278226 197.09880105 -161.11619053 211.66045862 -160 225 C-159.88785156 226.31226563 -159.77570313 227.62453125 -159.66015625 228.9765625 C-159.02846026 237.33571772 -158.96063306 245.61629934 -159 254 C-146.23315885 253.5009733 -133.4667811 252.99117561 -120.70072937 252.47233582 C-114.16704012 252.20721917 -107.63324141 251.94569366 -101.09912109 251.69140625 C-51.29596928 249.75169583 -1.53919792 247.07735259 48.18940735 243.71864319 C49.20261472 243.6502357 49.20261472 243.6502357 50.23629093 243.58044624 C52.07204042 243.45585205 53.90769753 243.32989892 55.74334717 243.20384216 C60.60061947 242.89981317 65.44663822 242.74104947 70.3125 242.6875 C71.21033203 242.65849609 72.10816406 242.62949219 73.03320312 242.59960938 C91.00011074 242.43096692 107.49142658 256.66528474 119.8125 268.5 C125.33013131 274.18364854 130 279.72685409 130 288 C127.76999957 293.50941283 123.53731026 296.784898 118.31640625 299.28515625 C101.68420908 306.07507944 83.78623701 308.3050241 66.125 310.8125 C64.94237579 310.98230377 63.75975159 311.15210754 62.54129028 311.32705688 C5.11063946 319.55408585 -52.53875836 325.59726695 -110.4375 329.25 C-111.74552582 329.33317474 -113.05355164 329.41634949 -114.4012146 329.50204468 C-140.83151812 331.16253377 -167.27497654 332.18752147 -193.76000977 332.18530273 C-196.7574564 332.18755251 -199.75456776 332.20604299 -202.75195312 332.22460938 C-232.71836658 332.31365029 -232.71836658 332.31365029 -243.10546875 323.140625 C-251.00499134 314.73618447 -251.17540879 303.9303791 -251.25 292.9375 C-251.270625 292.17373047 -251.29125 291.40996094 -251.3125 290.62304688 C-251.35368007 284.60560889 -250.32465879 280.02967826 -246.5703125 275.13671875 C-246.09335938 274.65847656 -245.61640625 274.18023437 -245.125 273.6875 C-226.77921246 253.07680041 -227.03015424 214.8053219 -228 189 C-228.38360112 183.28823488 -229.12898992 177.65543163 -230 172 C-230.12117188 171.01773438 -230.24234375 170.03546875 -230.3671875 169.0234375 C-230.7092876 166.33241643 -230.7092876 166.33241643 -232 163 C-233.98208275 162.2818131 -235.98577252 161.62236011 -238 161 C-248.0080618 154.80724483 -257.88152459 147.19143825 -260.9375 135.375 C-261.01073209 131.42046727 -260.37570774 130.10584956 -258 127 C-249.98381766 123.32041429 -240.27416735 123.35909415 -231.609375 122.9375 C-230.20827808 122.86112404 -228.80723229 122.78380518 -227.40623474 122.70562744 C-223.63817809 122.49865932 -219.86949349 122.3068992 -216.10046005 122.1186676 C-212.93995143 121.9591031 -209.7799199 121.79096406 -206.61984158 121.62312698 C-182.48306802 120.34399275 -158.33685189 119.26084147 -134.1875 118.25 C-133.40974716 118.21735046 -132.63199432 118.18470093 -131.83067322 118.15106201 C-127.3421697 117.96306248 -122.8535463 117.77846833 -118.36470222 117.59877777 C-116.3713788 117.51877213 -114.37812393 117.43706374 -112.38487244 117.35528564 C-105.25199094 117.07658029 -98.13827646 116.93203004 -91 117 C-90.69602295 116.21641113 -90.3920459 115.43282227 -90.07885742 114.62548828 C-89.04143085 112.10082538 -87.83214705 110.13157179 -86.3125 107.875 C-79.77691898 97.07291499 -76.07568879 84.7384083 -73.5625 72.4375 C-73.39862793 71.64166504 -73.23475586 70.84583008 -73.06591797 70.02587891 C-72.00063241 64.31618634 -71.82834195 58.7989903 -72 53 C-82.08838501 52.83138365 -92.01627634 53.31421325 -102.0625 54.1875 C-102.81468811 54.25047272 -103.56687622 54.31344543 -104.34185791 54.37832642 C-114.10788476 55.19746736 -123.84725746 56.18100113 -133.58203125 57.3125 C-134.56246902 57.42564041 -135.5429068 57.53878082 -136.55305481 57.65534973 C-141.33484665 58.20940661 -146.11403002 58.77853771 -150.89086914 59.3737793 C-160.16465676 60.49644279 -169.38211137 61.25640881 -178.7265625 61.39453125 C-180.04954849 61.43171516 -180.04954849 61.43171516 -181.39926147 61.46965027 C-196.81205493 61.48327502 -208.47741895 51.23673844 -219 41 C-229.11920181 30.53558022 -240.54982074 18.58229048 -240.3359375 3.41796875 C-240 1 -240 1 -238 -2 C-233.86422318 -3.48267313 -229.41795327 -3.26289562 -225.0703125 -3.39453125 C-223.17340455 -3.46086937 -221.27651409 -3.52770877 -219.37963867 -3.5949707 C-218.36533783 -3.62982574 -217.35103699 -3.66468079 -216.30599976 -3.70059204 C-175.70188505 -5.12904974 -135.12888904 -7.64518497 -94.6875 -11.5625 C-93.65595795 -11.66237213 -92.62441589 -11.76224426 -91.56161499 -11.86514282 C-79.13186064 -13.08129451 -66.72860474 -14.46766949 -54.3367157 -16.02430725 C-32.69318739 -18.70583483 -17.20668187 -13.78046118 0 0 Z " fill="currentColor" transform="translate(1627,146)"/>
<path d="M0 0 C0.88300781 0.6909375 1.76601563 1.381875 2.67578125 2.09375 C19.45356013 15.49654876 35.35697732 28.63184736 38 51 C38.30198316 56.12587919 38.33975898 61.24193053 38.3125 66.375 C38.31034485 67.11753021 38.3081897 67.86006042 38.30596924 68.62509155 C37.88525745 161.33367716 31.20610589 283.3235879 -26 381 C-31.81802006 386.60607033 -35.23169839 389.47041732 -43.4609375 389.328125 C-46.51785002 388.93307784 -48.57321019 387.93584958 -50.7578125 385.7265625 C-58.94777988 374.34302294 -58.32486038 358.40260741 -58.59765625 345 C-58.63482253 343.46353105 -58.67243624 341.92707286 -58.71046448 340.390625 C-59.05945622 325.70242121 -59.22156546 311.01112767 -59.36441422 296.3197279 C-59.72990606 184.45568717 -59.72990606 184.45568717 -68 73 C-68.19640742 71.2423095 -68.39182114 69.48450749 -68.5859375 67.7265625 C-68.72257812 66.49679688 -68.85921875 65.26703125 -69 64 C-70.04027344 64.27972656 -71.08054687 64.55945313 -72.15234375 64.84765625 C-135.37938651 81.16274543 -202.41109773 85.3062093 -267.25019455 90.7079277 C-269.22453711 90.87287272 -271.19871106 91.03983205 -273.17288208 91.20681763 C-306.40747616 93.99932587 -331.52558944 91.12185799 -358.76953125 69.8984375 C-369.99771926 60.34169604 -369.99771926 60.34169604 -372 53 C-372 47.89889332 -370.77719434 45.24363051 -367.44580078 41.42504883 C-333.43790534 7.90527752 -164.98584047 -2.30831175 -103.375 -9.5 C-102.65511902 -9.58370094 -101.93523804 -9.66740189 -101.19354248 -9.75363922 C-87.17347848 -11.38217463 -73.15054828 -12.96292612 -59.08984375 -14.203125 C-58.1868454 -14.28308716 -57.28384705 -14.36304932 -56.35348511 -14.44543457 C-34.59961169 -16.27501818 -17.54842829 -13.97796885 0 0 Z " fill="currentColor" transform="translate(451,170)"/>
<path d="M0 0 C0.74979126 -0.00570007 1.49958252 -0.01140015 2.27209473 -0.01727295 C3.85195536 -0.02665785 5.431835 -0.03323077 7.01171875 -0.03710938 C9.372765 -0.04673844 11.73290999 -0.07779186 14.09375 -0.109375 C27.46649844 -0.20343714 40.21467773 1.47683654 52.90625 5.890625 C53.64697754 6.14408691 54.38770508 6.39754883 55.15087891 6.65869141 C87.51799288 18.14113001 113.69122113 41.66386423 128.71875 72.453125 C144.06495968 105.01022351 141.7360732 142.95448292 129.90625 176.203125 C128.12310957 180.66569337 126.11417172 184.9366898 123.90625 189.203125 C123.36097656 190.28980469 122.81570313 191.37648438 122.25390625 192.49609375 C115.77257716 205.03254208 107.18872651 215.66737644 97.90625 226.203125 C97.28492188 226.91082031 96.66359375 227.61851562 96.0234375 228.34765625 C74.72075211 251.03549382 44.8074932 264.51991206 14.90625 271.203125 C13.34583984 271.55503906 13.34583984 271.55503906 11.75390625 271.9140625 C-24.74974268 278.97928487 -66.71034074 271.29750102 -97.84765625 250.7890625 C-105.10111109 245.82342184 -111.74689538 240.2877129 -118.09375 234.203125 C-118.92519531 233.43484375 -119.75664063 232.6665625 -120.61328125 231.875 C-141.26805227 212.20378951 -151.93215533 184.93673726 -156.09375 157.203125 C-156.22523438 156.35105469 -156.35671875 155.49898437 -156.4921875 154.62109375 C-160.45230089 123.20776185 -151.92354426 91.88066934 -133.50390625 66.2890625 C-129.75083602 61.48367274 -125.71472345 57.0172007 -121.47460938 52.63964844 C-120.14458365 51.25600781 -118.84500522 49.84329556 -117.546875 48.4296875 C-88.87668559 18.10879022 -41.29417343 0.25215809 0 0 Z M-69.91796875 98.2265625 C-78.65396733 110.17778497 -83.40924972 123.31633071 -82.09375 138.203125 C-78.39912448 157.98153945 -66.02146183 175.95609884 -49.44775391 187.33300781 C-33.02082391 197.87139249 -15.6291638 203.21459019 3.90625 200.203125 C18.10981264 197.078409 30.00180858 190.79548729 40.90625 181.203125 C41.66808594 180.53667969 42.42992187 179.87023437 43.21484375 179.18359375 C56.66194905 166.62208637 65.8688454 148.61310123 67.19140625 130.2421875 C67.74376011 113.79147781 62.92390163 99.2326496 52.22265625 86.58203125 C38.97180616 72.973654 21.91531159 66.27272882 3.09375 65.828125 C-24.32512424 66.17582812 -51.75005861 77.38025708 -69.91796875 98.2265625 Z " fill="currentColor" transform="translate(864.09375,364.796875)"/>
<path d="M0 0 C1.67920532 0.02888306 1.67920532 0.02888306 3.39233398 0.05834961 C13.01458285 0.3795748 21.34888007 2.12037619 30.25 5.6875 C30.91257812 5.94450684 31.57515625 6.20151367 32.2578125 6.46630859 C51.30675337 13.95441783 69.04908225 24.63747676 84.02734375 38.6171875 C86.03126734 40.48375956 88.08752915 42.24366074 90.1875 44 C122.96834975 72.83926461 134.93323453 112.46228859 137.96859741 154.73657227 C139.06077105 172.13332043 138.6526316 189.65394523 138.57661438 207.07500076 C138.5623349 210.60329443 138.55319678 214.13156772 138.54553223 217.65988159 C138.46684842 252.03882128 138.14843613 286.35409366 136.25 320.6875 C136.14561614 322.62814146 136.04123678 324.56878316 135.93700504 326.50943279 C127.4003582 484.87126077 127.4003582 484.87126077 89.2421875 524.05859375 C86.09106698 526.63509817 83.29874737 527.64380219 79.25 527.8125 C74.66946689 526.09480008 73.23435735 522.91108628 71.25 518.6875 C54.58869596 480.55263517 49.81977533 434.74518577 48.75 393.48046875 C48.70920412 391.99269517 48.66818218 390.50492778 48.62695312 389.01716614 C48.54083843 385.88299801 48.45704227 382.74877927 48.375 379.61450195 C48.27468364 375.78621822 48.16947424 371.95809159 48.06250763 368.12998867 C46.64957971 317.37877057 46.06369311 266.62397809 45.72393799 215.85565186 C45.60054369 197.46587449 45.45857782 179.07653108 45.25 160.6875 C45.23827759 159.62465538 45.22655518 158.56181076 45.21447754 157.46675873 C45.14799042 151.63354976 45.06496669 145.80106174 44.95335388 139.96853447 C44.9224146 138.26245556 44.89619426 136.55628328 44.87513733 134.85005379 C44.84541295 132.54852296 44.79744359 130.24811004 44.74414062 127.94702148 C44.70963806 126.04435768 44.70963806 126.04435768 44.67443848 124.10325623 C43.87025901 117.63145604 40.67142205 113.7631577 36.25 109.1875 C30.60940737 103.22070897 25.55689935 96.90712069 20.56884766 90.39160156 C19.33199935 88.79345252 18.06350204 87.21993973 16.79296875 85.6484375 C0.86565251 65.73285952 -16.31923899 39.56119616 -17.125 13.25 C-17.17398437 12.15816406 -17.22296875 11.06632813 -17.2734375 9.94140625 C-16.73382194 6.58693045 -15.92639841 4.35346822 -13.57861328 1.84106445 C-9.52317011 -0.71727586 -4.63121108 -0.1345822 0 0 Z " fill="currentColor" transform="translate(1731.75,-0.6875)"/>
<path d="M0 0 C1.1348584 0.5161084 2.2697168 1.0322168 3.43896484 1.56396484 C7.04367698 3.22840451 10.62003766 4.94522205 14.1875 6.6875 C14.81596832 6.99302795 15.44443665 7.29855591 16.09194946 7.61334229 C53.21606509 25.68414749 53.21606509 25.68414749 61 37 C62.00035656 41.64136022 61.57188183 45.78164305 59.5625 50.0625 C57.36047377 52.58677397 55.0934928 54.863623 52.6875 57.1875 C38.81943737 70.80548281 31.99287831 90.2011704 29.95703125 109.2109375 C29.87304581 109.98699844 29.78906036 110.76305939 29.70252991 111.56263733 C28.7480488 120.83616869 28.31929114 130.12573234 27.9375 139.4375 C27.89608887 140.38958344 27.85467773 141.34166687 27.81201172 142.32260132 C27.25843041 155.14719103 26.91329975 167.96987395 26.72265625 180.8046875 C26.71256971 181.47073816 26.70248318 182.13678883 26.69209099 182.82302284 C26.58332346 190.06927299 26.49402267 197.31546497 26.42944336 204.56225586 C26.40093127 206.98551494 26.37236919 209.40877343 26.34375 211.83203125 C26.33596275 213.47925674 26.33596275 213.47925674 26.32801819 215.15975952 C26.11209896 231.69316407 20.19061447 240.1725213 9 252 C8.23816406 252.83789062 7.47632813 253.67578125 6.69140625 254.5390625 C-0.71005473 262.39020173 -11.90817273 272.29146126 -23.13671875 273.2746582 C-24.30847656 273.28327881 -25.48023438 273.29189941 -26.6875 273.30078125 C-27.33401016 273.3063353 -27.98052032 273.31188934 -28.6466217 273.31761169 C-30.76464021 273.32946636 -32.88198047 273.32306532 -35 273.3125 C-35.7300827 273.31100952 -36.46016541 273.30951904 -37.21237183 273.3079834 C-67.48273086 273.19758131 -97.76643912 268.82369671 -127 261 C-127.87736816 260.76643799 -128.75473633 260.53287598 -129.65869141 260.29223633 C-141.48706342 256.9700634 -151.89418196 247.74249635 -158.0859375 237.0859375 C-159.61951971 233.58622424 -160.66875939 229.8096743 -160 226 C-156.69009887 222.75535431 -153.03214625 222.18440982 -148.6171875 221.4921875 C-147.87035706 221.36544144 -147.12352661 221.23869537 -146.35406494 221.10810852 C-144.72239708 220.8324282 -143.08986046 220.56185295 -141.456604 220.29574585 C-137.92265492 219.71978826 -134.39300237 219.11929185 -130.86288452 218.52037048 C-128.96061098 218.19787559 -127.05811851 217.87666977 -125.15542603 217.55665588 C-114.23718568 215.71664231 -103.341155 213.75491648 -92.44537354 211.78692627 C-89.17468078 211.19646886 -85.90354824 210.60850228 -82.63232422 210.02099609 C-80.5907992 209.65343758 -78.54929434 209.28576705 -76.5078125 208.91796875 C-75.59259827 208.75363846 -74.67738403 208.58930817 -73.73443604 208.41999817 C-68.57150481 207.48692 -63.43379553 206.48324013 -58.30636597 205.37007141 C-56 205 -56 205 -51 205 C-51 163.42 -51 121.84 -51 79 C-55.455 79.99 -55.455 79.99 -60 81 C-62.44533465 81.38006809 -64.89622757 81.72621666 -67.3515625 82.03515625 C-68.01352631 82.11873886 -68.67549011 82.20232147 -69.35751343 82.28843689 C-70.74703053 82.46271631 -72.13681646 82.63486505 -73.52685547 82.80493164 C-75.60079107 83.05952811 -77.67342451 83.32320549 -79.74609375 83.58789062 C-122.89244372 89.0041407 -172.08038803 88.80601959 -208.0625 60.875 C-226.65086623 45.99847412 -226.65086623 45.99847412 -231 37 C-220.85168674 34.34848165 -210.62035564 32.15173419 -200.36328125 29.97265625 C-198.54035874 29.58376824 -196.71747346 29.19470565 -194.8946228 28.80548096 C-190.03838213 27.76919199 -185.18156349 26.7356393 -180.32455063 25.70297623 C-177.30023762 25.05989255 -174.27603273 24.41630287 -171.25186157 23.77255249 C-163.15449165 22.04894796 -155.05703026 20.32577741 -146.95896912 18.60542297 C-136.92714579 16.47423002 -126.89645417 14.33799805 -116.86831665 12.18952942 C-95.04869815 7.51640012 -73.21861982 2.89395452 -51.28457642 -1.21548462 C-49.43460577 -1.56280152 -47.58540883 -1.91427443 -45.7371521 -2.27059937 C-29.49389063 -5.38504171 -15.47848464 -7.35739114 0 0 Z " fill="currentColor" transform="translate(1812,546)"/>
<path d="M0 0 C1.74021125 1.50818308 3.46969779 3.02884197 5.1875 4.5625 C6.03957031 5.28308594 6.89164063 6.00367188 7.76953125 6.74609375 C17.73821305 15.33661678 28.95162206 26.75596235 31.3125 40.25 C31.52093705 45.11353127 30.22109674 48.76850302 27.1875 52.5625 C16.44818776 62.3901936 1.33835205 62.79149407 -12.4375 62.8125 C-13.15143921 62.81483643 -13.86537842 62.81717285 -14.60095215 62.81958008 C-28.84879786 62.8365006 -43.03398292 62.07456881 -57.25561523 61.27536011 C-134.67877318 56.94628194 -213.56829663 58.06019634 -289.74243164 73.96679688 C-300.83272092 76.11870986 -310.05020117 72.14875716 -319.37109375 66.2265625 C-337.56914345 53.82277182 -358.24957366 34.2954692 -364.8125 12.5625 C-365.93190299 2.80130597 -365.93190299 2.80130597 -363.8125 -1.4375 C-359.70214155 -2.80761948 -355.83231883 -2.3936704 -351.5625 -2.1875 C-350.08813477 -2.12079102 -350.08813477 -2.12079102 -348.58398438 -2.05273438 C-338.47825474 -1.54956967 -328.39798136 -0.73748867 -318.3125 0.0625 C-288.07439238 2.45528917 -258.13028429 3.00762841 -227.8125 1.8125 C-226.71156006 1.76959839 -225.61062012 1.72669678 -224.47631836 1.68249512 C-166.72303277 -0.61654176 -108.98334155 -5.67508512 -51.72998047 -13.60888672 C-50.833936 -13.7319519 -49.93789154 -13.85501709 -49.01469421 -13.98181152 C-47.37165225 -14.20860919 -45.72917833 -14.43958529 -44.08747864 -14.67590332 C-27.26349417 -17.00582669 -12.97231212 -10.49177085 0 0 Z " fill="currentColor" transform="translate(1006.8125,270.4375)"/>
<path d="M0 0 C0.72960938 0.63550781 1.45921875 1.27101563 2.2109375 1.92578125 C2.85804688 2.48910156 3.50515625 3.05242188 4.171875 3.6328125 C17.60772957 16.15925334 22.45262112 35.67405107 23.33666992 53.45458984 C24.22013338 84.60712782 19.86180317 123.11346482 -0.71484375 148.28125 C-4.58926848 152.30501016 -8.13710867 155.18208528 -13.9140625 155.36328125 C-24.51189355 155.01751188 -32.34804317 147.61599456 -39.41113281 140.40625 C-48.92731534 130.18191782 -52.92522157 119.94604842 -55.25384521 106.36917114 C-60.0566689 78.66293999 -66.44679329 52.91936782 -87.04711914 32.76416016 C-103.49647855 16.44902954 -115.28243862 -4.14691534 -124.2890625 -25.32421875 C-124.63976807 -26.14688232 -124.99047363 -26.9695459 -125.35180664 -27.81713867 C-125.67141357 -28.58775635 -125.99102051 -29.35837402 -126.3203125 -30.15234375 C-126.60455078 -30.8371582 -126.88878906 -31.52197266 -127.18164062 -32.22753906 C-127.7890625 -34.07421875 -127.7890625 -34.07421875 -127.7890625 -37.07421875 C-93.74984422 -54.09382789 -26.22649744 -21.85541453 0 0 Z " fill="currentColor" transform="translate(1630.7890625,641.07421875)"/>
<path d="M0 0 C0.71591309 0.13889648 1.43182617 0.27779297 2.16943359 0.42089844 C29.68194894 5.8748296 60.35546687 25.50020052 77.1796875 47.90234375 C83.55338428 57.54222954 84.32413238 64.98332402 84.25 76.375 C84.25773438 77.55578125 84.26546875 78.7365625 84.2734375 79.953125 C84.25340817 88.94629336 84.23185551 97.94816351 78 105 C66.69152527 112.39673819 51.31980536 111.22313938 38.53759766 108.8215332 C11.54023468 103.12536828 -3.04890732 90.61515233 -19 69 C-19.55268555 68.25476074 -20.10537109 67.50952148 -20.67480469 66.74169922 C-57.07634017 17.53221607 -57.07634017 17.53221607 -55.69921875 2.77734375 C-55 0 -55 0 -53.1875 -1.8125 C-38.89789838 -9.56971231 -14.92554146 -3.08533984 0 0 Z " fill="currentColor" transform="translate(822,132)"/>
</svg>
