<?xml version="1.0" encoding="UTF-8"?>
<svg version="1.1" viewBox="0 0 1873 850" xmlns="http://www.w3.org/2000/svg">
<path transform="translate(1038.5,4.0625)" d="m0 0c1.7016 0.47808 1.7016 0.47808 3.4375 0.96582 43.532 12.439 92.467 32.439 125.06 64.972 0.58008 0.56848 1.1602 1.137 1.7578 1.7227 10.296 10.943 11.552 25.216 11.483 39.514 0.0017088 1.303 0.0034177 2.6061 0.0051783 3.9486 0.0044447 3.5918-0.0034902 7.1834-0.013556 10.775-0.008674 3.8826-0.0057116 7.7652-0.0041954 11.648 0.0010464 6.7186-0.0052041 13.437-0.016476 20.156-0.016286 9.7138-0.021466 19.428-0.023976 29.142-0.0043723 15.762-0.017669 31.524-0.036605 47.285-0.018371 15.307-0.032522 30.614-0.041016 45.921-5.2545e-4 0.94425-0.0010509 1.8885-0.0015923 2.8614-0.0026102 4.7372-0.0051376 9.4745-0.0076238 14.212-0.020718 39.272-0.055931 78.543-0.10065 117.81 0.57178-0.087054 1.1436-0.17411 1.7327-0.2638 2.62-0.39814 5.2403-0.79436 7.8606-1.1905 0.89938-0.13697 1.7988-0.27393 2.7254-0.41505 6.5884-0.99418 13.16-1.8152 19.806-2.3181 1.025-0.07823 2.0499-0.15646 3.106-0.23706 7.878-0.54737 15.748-0.81364 23.644-0.88794 1.0507-0.017644 2.1015-0.035288 3.1841-0.053467 10.184 0.008943 19.111 2.5522 28.253 6.9285 1.08 0.51446 1.08 0.51446 2.1819 1.0393 14.461 7.1344 35.127 20.578 40.506 36.398 2.7183 14.673-8.3435 30.139-16.187 41.758-5.821 8.4354-10.557 13.799-20.813 16.242-2.7303 0.19376-5.3546 0.30371-8.082 0.30078-1.1448 0.008399-1.1448 0.008399-2.3128 0.016968-2.4728 0.011889-4.9449 0.0056389-7.4177-0.005249-0.84731-0.0018228-1.6946-0.0036456-2.5676-0.0055237-61.536-0.22273-61.536-0.22273-76.62-15.307-0.0058662 1.2392-0.011732 2.4783-0.017776 3.755-0.058084 11.878-0.13126 23.756-0.21794 35.635-0.044075 6.1016-0.083454 12.203-0.11072 18.305-0.13614 29.557-0.78795 58.877-3.6536 88.306-0.1065 1.1026-0.213 2.2052-0.32272 3.3412-0.56763 5.7126-1.2343 11.406-1.9898 17.096-0.10454 0.80728-0.20909 1.6146-0.3168 2.4463-7.9363 61.046-21.115 131.2-62.371 179.12-0.43184 0.57105-0.86367 1.1421-1.3086 1.7305-3.3479 3.7234-7.3719 3.7988-12.066 4.082-5.0045-0.20057-8.3278-0.48498-12.062-3.9375-8.9071-10.895-14.788-22.666-13.562-36.875 0.75701-4.2757 1.8289-8.4662 2.9297-12.664 2.5697-10.087 3.674-20.227 4.5078-30.586 0.061865-0.7542 0.12373-1.5084 0.18747-2.2855 2.7445-33.778 4.2453-67.665 5.5-101.53 0.038521-1.0351 0.077042-2.0702 0.11673-3.1367 0.23175-6.3181 0.44018-12.637 0.63778-18.956 0.08073-2.5761 0.16283-5.1522 0.24625-7.7283 0.84479-26.314 1.0306-52.609 1.0343-78.935 0.0018881-5.8386 0.0094514-11.677 0.016135-17.516 0.013417-12.682 0.019578-25.363 0.024011-38.045 0.0027829-7.9292 0.007023-15.858 0.011504-23.787 0.012211-22.002 0.022507-44.003 0.025875-66.005 2.2162e-4 -1.4138 4.434e-4 -2.8276 6.6535e-4 -4.2413 2.2063e-4 -1.4168 4.4111e-4 -2.8336 6.6145e-4 -4.2504 4.4251e-4 -2.8415 8.8964e-4 -5.683 0.0013397-8.5246 1.0939e-4 -0.7045 2.1878e-4 -1.409 3.3148e-4 -2.1348 0.0036454-22.936 0.019641-45.873 0.042859-68.809 0.024581-24.327 0.038315-48.655 0.039511-72.982 8.5072e-4 -13.235 0.0066699-26.469 0.02482-39.704 0.015362-11.239 0.020544-22.478 0.012262-33.718-0.0039163-5.7326-0.0029282-11.465 0.011057-17.198 0.012675-5.243 0.011598-10.486-5.9072e-4 -15.729-0.0019677-1.8994 0.0011704-3.7987 0.0098444-5.6981 0.011023-2.5759 0.0036545-5.1511-0.0083915-7.727 0.011393-1.1128 0.011393-1.1128 0.023016-2.2481-0.047501-4.6859-0.94087-7.8759-3.395-11.865-1.9083-1.7546-1.9083-1.7546-4.1445-3.0195-0.79745-0.49581-1.5949-0.99161-2.4165-1.5024-0.80486-0.48775-1.6097-0.9755-2.439-1.478-1.4452-0.9355-2.8868-1.8768-4.3242-2.8242-0.71108-0.46503-1.4222-0.93006-2.1548-1.4092-22.531-14.834-50.623-34.809-56.923-62.638-0.19723-1.0325-0.39445-2.0651-0.59766-3.1289-0.20754-0.85723-0.41508-1.7145-0.62891-2.5977-2.1975-9.4508-4.3345-21.202-0.37109-30.402 6.2119-8.4896 21.084-3.3708 29.5-0.9375z" fill="currentColor"/>
<path transform="translate(287.5,405)" d="m0 0c8.0174 4.0138 15.398 8.5158 22.5 14 0.52271 0.40364 1.0454 0.80728 1.584 1.2231 3.027 2.4147 5.3225 4.6176 7.166 8.0269 0.38672 0.68578 0.77344 1.3716 1.1719 2.0781 8.0473 19.943 5.3945 45.006 5.3389 66.086-0.011268 4.3008-0.0047022 8.6014 0.0068855 12.902 0.089893 39.469-1.1836 78.324-11.268 116.68 0.54149-0.010474 1.083-0.020947 1.6409-0.031738 61.675-0.99364 124.62 3.7412 185.42 14.094 0.69491 0.11793 1.3898 0.23586 2.1058 0.35736 7.7047 1.3231 15.35 2.8569 22.968 4.6075 0.70117 0.1584 1.4023 0.3168 2.1248 0.48 11.912 2.8136 19.708 9.6405 28.197 17.982 1.4315 1.4029 2.886 2.7821 4.3423 4.1592 8.8902 8.553 20.075 21.094 20.887 34.039-0.77521 9.3699-8.0618 17.241-14.688 23.312-13.609 9.7208-37.869 12.769-54 11-6.2885-1.175-12.425-2.9936-18.56-4.7856-2.9407-0.85793-5.8877-1.6902-8.8376-2.516-3.8586-1.0815-7.715-2.1698-11.569-3.2673-40.332-11.478-82.182-16.6-123.73-21.623-0.66804-0.08185-1.3361-0.1637-2.0244-0.24803-13.993-1.6637-28.022-2.8861-42.093-3.6504-1.161-0.063562-1.161-0.063562-2.3455-0.12841-19.945-1.0625-39.892-1.137-59.861-1.0996-3.0269 0.0054464-6.0539 0.0078096-9.0808 0.0098724-30.467 0.032319-60.788 0.5681-91.167 3.0834-2.7165 0.22359-5.4336 0.43625-8.1512 0.64648-31.907 2.4997-64.096 6.1058-95.515 12.27-14.456 2.7999-27.415 2.282-40.062-5.6914-0.79438-13.593 0.52051-26.319 10-37 2.1857-1.8547 4.5079-3.2788 7-4.6875 1.0876-0.62274 1.0876-0.62274 2.1973-1.2581 66.519-36.641 146.46-40.852 220.8-40.054-0.19336-1.1047-0.38672-2.2095-0.58594-3.3477-1.5162-8.941-2.7433-17.867-3.5391-26.902-0.11287-1.2434-0.11287-1.2434-0.22803-2.512-1.5692-18.983-1.8122-38.014-1.772-57.051-2.2473e-4 -2.2034-4.6903e-4 -4.4067-7.3242e-4 -6.6101 0.014763-12.496 0.13148-24.966 1.0334-37.434 0.22584-3.6966 0.3395-6.4471-0.90771-9.9597-2.8488-3.1103-6.1006-5.1264-9.6875-7.3086-1.5428-0.96952-3.0845-1.9409-4.625-2.9141-0.78246-0.49146-1.5649-0.98291-2.3711-1.4893-31.229-19.841-56.78-40.556-66.316-77.597-1.0994-5.5692-2.0347-11.237-1-16.875 20.307-27.441 114.56 17.749 137.5 29z" fill="currentColor"/>
<path transform="translate(1627,146)" d="m0 0c7.6939 6.3578 15.475 13.405 19 23 0.54616 7.5134-1.0225 13.378-3.5 20.438-0.35876 1.0461-0.71752 2.0921-1.0872 3.1699-9.3898 26.841-19.159 41.131-45.089 53.686-12.441 5.8532-25.277 10.405-38.324 14.707 7.8849 0.10467 15.694 0.0091006 23.562-0.5 6.9987-0.4253 13.989-0.66974 21-0.75 1.3556-0.031904 1.3556-0.031904 2.7385-0.064453 7.2212-0.037391 13.651 1.0115 19.511 5.4395 8.1396 10.698 10.646 26.09 13.062 39.062 0.13221 0.68191 0.26442 1.3638 0.40063 2.0664 0.77493 4.4845 0.85753 8.3267-0.27563 12.746-9.4998 10.749-36.22 9.8827-49.317 10.734-39.076 2.3281-78.354 1.4418-117.38-1.332-4.7864-0.33284-9.5082-0.49205-14.305-0.40234 0.5775 0.96938 1.155 1.9388 1.75 2.9375 6.0272 12.161 7.1338 26.723 8.25 40.062 0.11215 1.3123 0.2243 2.6245 0.33984 3.9766 0.6317 8.3592 0.69952 16.64 0.66016 25.023 12.767-0.49903 25.533-1.0088 38.299-1.5277 6.5337-0.26512 13.067-0.52664 19.602-0.78093 49.803-1.9397 99.56-4.6141 149.29-7.9728 1.0132-0.068407 1.0132-0.068407 2.0469-0.1382 1.8357-0.12459 3.6714-0.25055 5.5071-0.3766 4.8573-0.30403 9.7033-0.46279 14.569-0.51634 0.89783-0.029004 1.7957-0.058008 2.7207-0.087891 17.967-0.16864 34.458 14.066 46.779 25.9 5.5176 5.6836 10.188 11.227 10.188 19.5-2.23 5.5094-6.4627 8.7849-11.684 11.285-16.632 6.7899-34.53 9.0199-52.191 11.527-1.1826 0.1698-2.3652 0.33961-3.5837 0.51456-57.431 8.227-115.08 14.27-172.98 17.923-1.308 0.083175-2.6161 0.16635-3.9637 0.25204-26.43 1.6605-52.874 2.6855-79.359 2.6833-2.9974 0.0022498-5.9946 0.02074-8.9919 0.039307-29.966 0.089041-29.966 0.089041-40.354-9.084-7.8995-8.4044-8.0699-19.21-8.1445-30.203-0.020625-0.76377-0.04125-1.5275-0.0625-2.3145-0.04118-6.0174 0.98784-10.593 4.7422-15.486 0.47695-0.47824 0.95391-0.95648 1.4453-1.4492 18.346-20.611 18.095-58.882 17.125-84.688-0.3836-5.7118-1.129-11.345-2-17-0.12117-0.98227-0.24234-1.9645-0.36719-2.9766-0.3421-2.691-0.3421-2.691-1.6328-6.0234-1.9821-0.71819-3.9858-1.3776-6-2-10.008-6.1928-19.882-13.809-22.938-25.625-0.073232-3.9545 0.56179-5.2692 2.9375-8.375 8.0162-3.6796 17.726-3.6409 26.391-4.0625 1.4011-0.076376 2.8021-0.15369 4.2031-0.23187 3.7681-0.20697 7.5367-0.39873 11.306-0.58696 3.1605-0.15956 6.3205-0.3277 9.4806-0.49554 24.137-1.2791 48.283-2.3623 72.432-3.3731 0.77775-0.03265 1.5555-0.065299 2.3568-0.098938 4.4885-0.188 8.9771-0.37259 13.466-0.55228 1.9933-0.080006 3.9866-0.16171 5.9798-0.24349 7.1329-0.27871 14.247-0.42326 21.385-0.35529 0.30398-0.78359 0.60795-1.5672 0.92114-2.3745 1.0374-2.5247 2.2467-4.4939 3.7664-6.7505 6.5356-10.802 10.237-23.137 12.75-35.438 0.16387-0.79583 0.32774-1.5917 0.49658-2.4116 1.0653-5.7097 1.2376-11.227 1.0659-17.026-10.088-0.16862-20.016 0.31421-30.062 1.1875-0.75219 0.062973-1.5044 0.12595-2.2794 0.19083-9.766 0.81914-19.505 1.8027-29.24 2.9342-0.98044 0.11314-1.9609 0.22628-2.971 0.34285-4.7818 0.55406-9.561 1.1232-14.338 1.7184-9.2738 1.1227-18.491 1.8826-27.836 2.0208-1.323 0.037184-1.323 0.037184-2.6727 0.075119-15.413 0.013625-27.078-10.233-37.601-20.47-10.119-10.464-21.55-22.418-21.336-37.582 0.33594-2.418 0.33594-2.418 2.3359-5.418 4.1358-1.4827 8.582-1.2629 12.93-1.3945 1.8969-0.066338 3.7938-0.13318 5.6907-0.20044 1.0143-0.034855 2.0286-0.06971 3.0736-0.10562 40.604-1.4285 81.177-3.9446 121.62-7.8619 1.0315-0.099872 2.0631-0.19974 3.1259-0.30264 12.43-1.2162 24.833-2.6025 37.225-4.1592 21.644-2.6815 37.13 2.2438 54.337 16.024z" fill="currentColor"/>
<path transform="translate(451,170)" d="m0 0c0.88301 0.69094 1.766 1.3819 2.6758 2.0938 16.778 13.403 32.681 26.538 35.324 48.906 0.30198 5.1259 0.33976 10.242 0.3125 15.375-0.0021552 0.74253-0.0043103 1.4851-0.0065308 2.2501-0.42071 92.709-7.0999 214.7-64.306 312.37-5.818 5.6061-9.2317 8.4704-17.461 8.3281-3.0569-0.39505-5.1123-1.3923-7.2969-3.6016-8.19-11.384-7.567-27.324-7.8398-40.727-0.037166-1.5365-0.07478-3.0729-0.11281-4.6094-0.34899-14.688-0.5111-29.379-0.65395-44.071-0.36549-111.86-0.36549-111.86-8.6356-223.32-0.19641-1.7577-0.39182-3.5155-0.58594-5.2734-0.13664-1.2298-0.27328-2.4595-0.41406-3.7266-1.0403 0.27973-2.0805 0.55945-3.1523 0.84766-63.227 16.315-130.26 20.459-195.1 25.86-1.9743 0.16495-3.9485 0.3319-5.9227 0.49889-33.235 2.7925-58.353-0.08496-85.597-21.308-11.228-9.5567-11.228-9.5567-13.23-16.898 0-5.1011 1.2228-7.7564 4.5542-11.575 34.008-33.52 202.46-43.733 264.07-50.925 0.71988-0.083701 1.4398-0.1674 2.1815-0.25364 14.02-1.6285 28.043-3.2093 42.104-4.4495 0.903-0.079962 1.806-0.15992 2.7364-0.24231 21.754-1.8296 38.805 0.46747 56.353 14.445z" fill="currentColor"/>
<path transform="translate(864.09 364.8)" d="m0 0c0.74979-0.0057001 1.4996-0.0114 2.2721-0.017273 1.5799-0.0093849 3.1597-0.015958 4.7396-0.019836 2.361-0.0096291 4.7212-0.040682 7.082-0.072266 13.373-0.094062 26.121 1.5862 38.812 6 0.74073 0.25346 1.4815 0.50692 2.2446 0.76807 32.367 11.482 58.54 35.005 73.568 65.794 15.346 32.557 13.017 70.501 1.1875 103.75-1.7831 4.4626-3.7921 8.7336-6 13-0.54527 1.0867-1.0905 2.1734-1.6523 3.293-6.4813 12.536-15.065 23.171-24.348 33.707-0.62133 0.7077-1.2427 1.4154-1.8828 2.1445-21.303 22.688-51.216 36.172-81.117 42.855-1.5604 0.35191-1.5604 0.35191-3.1523 0.71094-36.504 7.0652-78.464-0.61656-109.6-21.125-7.2535-4.9656-13.899-10.501-20.246-16.586-0.83145-0.76828-1.6629-1.5366-2.5195-2.3281-20.655-19.671-31.319-46.938-35.48-74.672-0.13148-0.85207-0.26297-1.7041-0.39844-2.582-3.9601-31.413 4.5686-62.74 22.988-88.332 3.7531-4.8054 7.7892-9.2719 12.029-13.649 1.33-1.3836 2.6296-2.7964 3.9277-4.21 28.67-30.321 76.253-48.178 117.55-48.43zm-69.918 98.227c-8.736 11.951-13.491 25.09-12.176 39.977 3.6946 19.778 16.072 37.753 32.646 49.13 16.427 10.538 33.819 15.882 53.354 12.87 14.204-3.1247 26.096-9.4076 37-19 0.76184-0.66645 1.5237-1.3329 2.3086-2.0195 13.447-12.562 22.654-30.57 23.977-48.941 0.55235-16.451-4.2675-31.01-14.969-43.66-13.251-13.608-30.307-20.309-49.129-20.754-27.419 0.3477-54.844 11.552-73.012 32.398z" fill="currentColor"/>
<path transform="translate(1731.8 -.6875)" d="m0 0c1.6792 0.028883 1.6792 0.028883 3.3923 0.05835 9.6222 0.32123 17.957 2.062 26.858 5.6292 0.66258 0.25701 1.3252 0.51401 2.0078 0.77881 19.049 7.4881 36.791 18.171 51.77 32.151 2.0039 1.8666 4.0602 3.6265 6.1602 5.3828 32.781 28.839 44.746 68.462 47.781 110.74 1.0922 17.397 0.68403 34.917 0.60802 52.338-0.014279 3.5283-0.023418 7.0566-0.031082 10.585-0.078684 34.379-0.3971 68.694-2.2955 103.03-0.10438 1.9406-0.20876 3.8813-0.31299 5.8219-8.5366 158.36-8.5366 158.36-46.695 197.55-3.1511 2.5765-5.9434 3.5852-9.9922 3.7539-4.5805-1.7177-6.0156-4.9014-8-9.125-16.661-38.135-21.43-83.942-22.5-125.21-0.040796-1.4878-0.081818-2.9755-0.12305-4.4633-0.086115-3.1342-0.16991-6.2684-0.25195-9.4027-0.10032-3.8283-0.20553-7.6564-0.31249-11.485-1.4129-50.751-1.9988-101.51-2.3386-152.27-0.12339-18.39-0.26536-36.779-0.47394-55.168-0.011722-1.0628-0.023445-2.1257-0.035522-3.2207-0.066487-5.8332-0.14951-11.666-0.26112-17.498-0.030939-1.7061-0.05716-3.4123-0.078217-5.1185-0.029724-2.3015-0.077694-4.6019-0.131-6.903-0.034503-1.9027-0.034503-1.9027-0.069702-3.8438-0.80418-6.4718-4.003-10.34-8.4244-14.916-5.6406-5.9668-10.693-12.28-15.681-18.796-1.2368-1.5981-2.5053-3.1717-3.7759-4.7432-15.927-19.916-33.112-46.087-33.918-72.398-0.048984-1.0918-0.097969-2.1837-0.14844-3.3086 0.53962-3.3545 1.347-5.5879 3.6948-8.1003 4.0554-2.5583 8.9474-1.9756 13.579-1.8411z" fill="currentColor"/>
<path transform="translate(1812,546)" d="m0 0c1.1349 0.51611 2.2697 1.0322 3.439 1.564 3.6047 1.6644 7.1811 3.3813 10.749 5.1235 0.62847 0.30553 1.2569 0.61106 1.9044 0.92584 37.124 18.071 37.124 18.071 44.908 29.387 1.0004 4.6414 0.57188 8.7816-1.4375 13.062-2.202 2.5243-4.469 4.8011-6.875 7.125-13.868 13.618-20.695 33.014-22.73 52.023-0.083985 0.77606-0.16797 1.5521-0.2545 2.3517-0.95448 9.2735-1.3832 18.563-1.765 27.875-0.041411 0.95208-0.082822 1.9042-0.12549 2.8851-0.55358 12.825-0.89871 25.647-1.0894 38.482-0.010087 0.66605-0.020173 1.3321-0.030565 2.0183-0.10877 7.2463-0.19807 14.492-0.26265 21.739-0.028512 2.4233-0.057074 4.8465-0.085693 7.2698-0.0077872 1.6472-0.0077872 1.6472-0.015732 3.3277-0.21592 16.533-6.1374 25.013-17.328 36.84-0.76184 0.83789-1.5237 1.6758-2.3086 2.5391-7.4015 7.8511-18.6 17.752-29.828 18.736-1.1718 0.0086206-2.3435 0.017241-3.5508 0.026123-0.64651 0.005554-1.293 0.011108-1.9591 0.01683-2.118 0.011855-4.2354 0.0054536-6.3534-0.0051117-0.73008-0.0014905-1.4602-0.002981-2.2124-0.0045166-30.27-0.1104-60.554-4.4843-89.788-12.308-0.87737-0.23356-1.7547-0.46712-2.6587-0.70776-11.828-3.3222-22.235-12.55-28.427-23.206-1.5336-3.4997-2.5828-7.2763-1.9141-11.086 3.3099-3.2446 6.9679-3.8156 11.383-4.5078 0.74683-0.12675 1.4937-0.25349 2.2631-0.38408 1.6317-0.27568 3.2642-0.54626 4.8975-0.81236 3.5339-0.57596 7.0636-1.1765 10.594-1.7754 1.9023-0.32249 3.8048-0.6437 5.7075-0.96371 10.918-1.84 21.814-3.8017 32.71-5.7697 3.2707-0.59046 6.5418-1.1784 9.813-1.7659 2.0415-0.36756 4.083-0.73523 6.1245-1.103 0.91521-0.16433 1.8304-0.32866 2.7734-0.49797 5.1629-0.93308 10.301-1.9368 15.428-3.0499 2.3064-0.37007 2.3064-0.37007 7.3064-0.37007v-126c-4.455 0.99-4.455 0.99-9 2-2.4453 0.38007-4.8962 0.72622-7.3516 1.0352-0.66196 0.083583-1.3239 0.16717-2.006 0.25328-1.3895 0.17428-2.7793 0.34643-4.1693 0.51649-2.0739 0.2546-4.1466 0.51827-6.2192 0.78296-43.146 5.4163-92.334 5.2181-128.32-22.713-18.588-14.877-18.588-14.877-22.938-23.875 10.148-2.6515 20.38-4.8483 30.637-7.0273 1.8229-0.38889 3.6458-0.77795 5.4687-1.1672 4.8562-1.0363 9.7131-2.0698 14.57-3.1025 3.0243-0.64308 6.0485-1.2867 9.0727-1.9304 8.0974-1.7236 16.195-3.4468 24.293-5.1671 10.032-2.1312 20.063-4.2674 30.091-6.4159 21.82-4.6731 43.65-9.2956 65.584-13.405 1.85-0.34732 3.6992-0.69879 5.5474-1.0551 16.243-3.1144 30.259-5.0868 45.737 2.2706z" fill="currentColor"/>
<path transform="translate(1006.8 270.44)" d="m0 0c1.7402 1.5082 3.4697 3.0288 5.1875 4.5625 0.85207 0.72059 1.7041 1.4412 2.582 2.1836 9.9687 8.5905 21.182 20.01 23.543 33.504 0.20844 4.8635-1.0914 8.5185-4.125 12.312-10.739 9.8277-25.849 10.229-39.625 10.25-0.71394 0.0023364-1.4279 0.0046728-2.1635 0.0070801-14.248 0.016921-28.433-0.74501-42.655-1.5442-77.423-4.3291-156.31-3.2152-232.49 12.691-11.09 2.1519-20.308-1.818-29.629-7.7402-18.198-12.404-38.878-31.931-45.441-53.664-1.1194-9.7612-1.1194-9.7612 1-14 4.1104-1.3701 7.9802-0.95617 12.25-0.75 1.4744 0.066709 1.4744 0.066709 2.9785 0.13477 10.106 0.50316 20.186 1.3152 30.271 2.1152 30.238 2.3928 60.182 2.9451 90.5 1.75 1.1009-0.042902 2.2019-0.085803 3.3362-0.13 57.753-2.299 115.49-7.3576 172.75-15.291 0.89604-0.12307 1.7921-0.24613 2.7153-0.37292 1.643-0.2268 3.2855-0.45777 4.9272-0.69409 16.824-2.3299 31.115 4.1841 44.087 14.676z" fill="currentColor"/>
<path transform="translate(1630.8 641.07)" d="m0 0c0.72961 0.63551 1.4592 1.271 2.2109 1.9258 0.64711 0.56332 1.2942 1.1266 1.9609 1.707 13.436 12.526 18.281 32.041 19.165 49.822 0.88346 31.153-3.4749 69.659-24.052 94.827-3.8744 4.0238-7.4223 6.9008-13.199 7.082-10.598-0.34577-18.434-7.7473-25.497-14.957-9.5162-10.224-13.514-20.46-15.843-34.037-4.8028-27.706-11.193-53.45-31.793-73.605-16.449-16.315-28.235-36.911-37.242-58.088-0.35071-0.82266-0.70141-1.6453-1.0627-2.4929-0.31961-0.77062-0.63921-1.5412-0.96851-2.3352-0.28424-0.68481-0.56848-1.3696-0.86133-2.0752-0.60742-1.8467-0.60742-1.8467-0.60742-4.8467 34.039-17.02 101.56 15.219 127.79 37.074z" fill="currentColor"/>
<path transform="translate(822,132)" d="m0 0c0.71591 0.1389 1.4318 0.27779 2.1694 0.4209 27.513 5.4539 58.186 25.079 75.01 47.481 6.3737 9.6399 7.1444 17.081 7.0703 28.473 0.0077344 1.1808 0.015469 2.3616 0.023438 3.5781-0.020029 8.9932-0.041582 17.995-6.2734 25.047-11.308 7.3967-26.68 6.2231-39.462 3.8215-26.997-5.6962-41.587-18.206-57.538-39.822-0.55269-0.74524-1.1054-1.4905-1.6748-2.2583-36.402-49.209-36.402-49.209-35.024-63.964 0.69922-2.7773 0.69922-2.7773 2.5117-4.5898 14.29-7.7572 38.262-1.2728 53.188 1.8125z" fill="currentColor"/>
</svg>
